<svg xmlns="http://www.w3.org/2000/svg" width="1706.667" height="1706.667" version="1.0" viewBox="0 0 1280 1280"><path d="M282.9 241.5c-45 34.3-77 61.5-101.3 86-57 57.4-92 115.9-114.5 191-2.9 9.8-8.4 33.2-9.6 41.1-.1 1.1-.8 4.5-1.4 7.5-6.1 30.7-6.2 107.7 0 143.1.5 3.2 1.2 7.4 1.4 9.5.9 8.5 7.2 43.3 11.3 62.8 1.7 7.7 3.8 17.6 4.6 22 3.3 16.4 5.8 23.5 9.2 27.2 1.8 1.9 4 3.3 4.9 3.1 1-.2 3-3.4 4.8-7.8 20-48.3 58-91.5 104.5-118.9 5.7-3.4 10.5-6.1 10.7-6.1.3 0 4.2-1.8 8.7-4.1 11.1-5.4 19.8-8.8 28.3-11.2 11.4-3.1 14.6-3.6 23.6-3.7 15.2 0 30.6 5.5 44.9 16 7.5 5.6 21.5 19.8 28.2 28.5 11.6 15.2 24.8 38.5 32.3 56.6 3.2 7.7 9.7 28.3 12.1 38 .9 3.8 2 6.8 2.5 6.7.4-.2 4.7-3.7 9.5-7.8 23.7-20.4 47.1-33.9 69.4-40 7-1.9 10.9-2.3 22-2.3 12.4.1 14.3.3 23 3.2 27 9 48.2 28.1 70.2 63.2 13.9 22.3 30.4 55 39.3 78 2 5.2 4.7 12.1 6 15.4 1.2 3.3 2.6 7.1 3 8.5.3 1.4 1 3.4 1.5 4.5 3.5 8.3 12.3 40.3 16.4 60 2.2 10.5 2.3 10.9 3.5 8 3.3-8.2 27.2-69.2 36.8-94 4.7-12.2 8.3-21 11.3-28 .5-1.1 2.3-5.4 4.1-9.5 8.5-20.1 18.3-37.3 30.6-53.6 18.1-24.2 40.4-40.5 66.3-48.5 9.8-3 11.5-3.2 25.5-3.3 13.7-.1 15.8.2 24.4 2.7 20.1 6 35.5 16.1 60.7 39.7 9.8 9.1 12 10.8 12.5 9.3.4-1 1.7-5.6 3-10.3 13.7-51.1 32.6-83.7 62.3-107.4 25.3-20.2 58.9-28.4 86.6-21.1 22.5 5.8 38.6 15.6 60.1 36.6 13.7 13.4 22.3 23.7 45.4 54.4 40.2 53.4 45.8 60.6 46.5 59.8 1.3-1.6 7.5-21 13.5-42.3 1.4-5.2 3.3-11.8 4.1-14.5 8.1-28.4 17.4-83.8 19.5-116 .9-13.9.3-66.6-.9-76.5-4-32.8-7.9-52.5-15.2-77-3.1-10.3-9.9-29.7-12.3-35.1-.9-1.9-3-6.8-4.8-10.9-25.7-60.2-76.7-126.2-142.4-184.5-25.7-22.8-62.1-52.2-63.2-51.1-.3.3-1.1 11.2-1.9 24.3-.7 13.1-1.8 29.2-2.3 35.8-.6 6.6-1.3 16.3-1.6 21.6-1.3 21.1-6 30.4-20.4 39.6-4.8 3.1-10.8 6-32.6 15.8-14.5 6.5-42 17.4-65.5 26.1-26.3 9.7-63.8 21.5-89 28-5.2 1.3-10.9 2.9-12.5 3.4-1.7.6-6 1.7-9.5 2.5-3.6.8-10.3 2.3-15 3.4-11.6 2.8-11.7 2.8-12.4-1.7-.4-2-1.4-6-2.1-8.7-1.8-6.1-5.3-19.4-15-56.5-4.2-16-8.2-29.5-9.3-31-2.8-3.6-6.7-4.8-10-2.9-3.1 1.7-3.2 3.7-1.3 13.1 3.4 16.5-8.1 36.1-26.3 44.8-10.8 5.1-17.5 6.4-34.1 6.3-23-.1-47.5-4.4-55.3-9.7-7.4-5-9.3-9.9-10.3-26.4-.8-14.6-1.5-17.5-5.5-23.3-2.5-3.7-9.4-7.6-11.2-6.5-.5.3-1.3 2.3-1.6 4.3-1.3 7.3-8.4 36.3-13.1 54-1 3.4-4.5 14.5-7.9 24.5-5.3 15.9-6.4 18.3-8.1 18.1-3.9-.3-30.7-7.6-58.5-15.9-28.1-8.4-88.6-30.1-104.7-37.5-2.4-1-4.5-1.9-4.9-1.9-.6 0-12.2-4.9-19.4-8.2-2.5-1.2-8.5-3.8-13.3-5.9-15-6.4-21.7-10.7-29.7-18.8-12.6-12.8-21.6-32.2-24-51.7-1.9-15.5-.4-57.4 2.5-66.3.3-1.1.2-2.1-.3-2.1s-8.3 5.6-17.3 12.5z"/></svg>